<svg width="80" height="80" viewBox="0 0 80 80" fill="none" xmlns="http://www.w3.org/2000/svg">
<g clip-path="url(#clip0_22116_4349)">
<rect width="80" height="80" fill="#EA7100"/>
<mask id="mask0_22116_4349" style="mask-type:luminance" maskUnits="userSpaceOnUse" x="0" y="0" width="80" height="80">
<path d="M80 0H0V80H80V0Z" fill="white"/>
</mask>
<g mask="url(#mask0_22116_4349)">
<path d="M0 13.3333C0 5.96953 5.96953 0 13.3333 0H66.6667C74.0305 0 80 5.96953 80 13.3333V66.6667C80 74.0305 74.0305 80 66.6667 80H13.3333C5.96953 80 0 74.0305 0 66.6667V13.3333Z" fill="#EA7100"/>
<path d="M38.0839 46.7309H41.6531V50.5726H38.6869C35.5648 50.5726 33.6489 49.4931 33.6489 45.5346V36.9567H31.5287C31.1592 36.9567 30.9647 36.5092 31.2175 36.237L37.3544 29.2734C37.617 28.9914 38.0936 29.176 38.0936 29.5651V33.1149H41.6337V36.9567H38.0936V46.7309H38.0839ZM25.3626 32.8329C23.2328 32.8329 21.6376 34.0584 20.8597 35.984H20.7137V33.1053H16.4831V50.5726H20.9278V37.0345H23.8941C25.1876 37.0345 25.6642 37.3068 25.6642 38.6878V50.5726H30.1087V37.8221C30.0991 34.3112 28.4166 32.8329 25.3626 32.8329ZM8.7998 50.5726H13.2444V33.1053H8.7998V50.5726ZM66.9497 36.1981H66.7648V33.1053H62.3494V50.5726H67.0567V37.2776H71.1998V32.8329H70.6259C68.4475 32.8329 67.4845 33.7957 66.9497 36.1981ZM60.2877 41.3915V42.7142H46.9634C47.2066 45.311 48.8308 47.0324 51.34 47.0324C53.5866 47.0324 55.2108 45.8362 55.5414 44.3579H60.2778C59.2858 48.0439 55.9012 50.8643 51.2719 50.8643C45.8741 50.8643 42.2075 47.0228 42.2075 41.9848C42.2075 36.9468 45.7476 32.8329 51.3886 32.8329C56.7183 32.8329 60.2877 36.4995 60.2877 41.3915ZM47.0995 39.4949H55.697C55.0259 37.7445 53.6061 36.4898 51.4081 36.4898C49.4823 36.4995 47.7901 37.511 47.0995 39.4949Z" fill="white"/>
</g>
</g>
<defs>
<clipPath id="clip0_22116_4349">
<rect width="80" height="80"/>
</clipPath>
</defs>
</svg>
