<svg width="80" height="80" viewBox="0 0 80 80" fill="none" xmlns="http://www.w3.org/2000/svg">
<g clip-path="url(#clip0_22116_4357)">
<rect width="80" height="80" fill="#FF6200"/>
<mask id="mask0_22116_4357" style="mask-type:luminance" maskUnits="userSpaceOnUse" x="0" y="0" width="80" height="80">
<path d="M80 0H0V80H80V0Z" fill="white"/>
</mask>
<g mask="url(#mask0_22116_4357)">
<path d="M16.309 69.745C12.7574 68.9731 10.9033 66.8416 10.255 63.691C8.92567 58.1617 8 49.328 8 40C8 30.672 8.92567 21.8383 10.255 16.309C10.9033 13.1283 12.7574 11.0269 16.309 10.225C22.0854 8.80206 30.6417 8 40 8C49.3583 8 57.9144 8.80206 63.691 10.225C67.2426 11.0269 69.0967 13.1283 69.745 16.309C71.0743 21.8383 72 30.6417 72 40C72 49.3583 71.0743 58.1617 69.745 63.691C69.0967 66.8416 67.2426 68.9731 63.691 69.745C57.9144 71.1979 49.3583 72 40 72C30.6417 72 22.0854 71.1979 16.309 69.745ZM17.4215 40.5247C19.0585 40.5247 20.2013 39.4122 20.2013 37.8383C20.2013 36.2643 19.0585 35.152 17.4215 35.152C15.7843 35.152 14.6417 36.2643 14.6417 37.8383C14.6417 39.4122 15.7843 40.5247 17.4215 40.5247ZM19.77 58.225V42.1947H15.0757V58.225H19.77ZM23.9094 45.8396V52.6957C23.9094 56.5878 25.9474 58.5326 29.5622 58.5326C30.8588 58.5326 31.941 58.3788 32.4655 58.2221V54.6404C32.1249 54.7337 31.5069 54.8243 30.7983 54.8243C29.2848 54.8243 28.6063 54.0827 28.6063 52.3852V45.8369H32.6826V42.192H28.6063V37.3411L23.9121 38.1733V42.1891H21.5663V45.8342H23.9121L23.9094 45.8396ZM39.6621 58.6286C41.5464 58.6286 42.906 57.8568 43.862 56.5604L43.9223 58.2277H48.309V48.8062C48.309 44.2356 45.7463 41.7937 41.1728 41.7937C38.8272 41.7937 36.8796 42.1644 34.9953 42.8759V46.6444C36.8493 45.9331 38.7007 45.5019 40.4312 45.5019C42.593 45.5019 43.7987 46.4906 43.7987 48.2211C43.428 48.1908 42.81 48.1608 42.2221 48.1608C37.2808 48.1608 34.1604 50.1987 34.1604 53.69C34.1604 56.7169 36.2919 58.6313 39.6594 58.6313L39.6621 58.6286ZM42.6589 51.0612C43.0298 51.0612 43.6175 51.0915 43.8317 51.1244V52.3907C43.8317 54.091 42.6892 55.2638 41.052 55.2638C39.599 55.2638 38.7036 54.6157 38.7036 53.3191C38.7036 51.8359 40.1236 51.0641 42.6562 51.0641L42.6589 51.0612ZM56.033 58.6286C57.9776 58.6286 59.3072 57.9173 60.3564 56.4972L60.4168 58.2277H64.927V42.1974H60.2329V51.6492C60.2329 53.5938 59.2742 54.8299 57.7002 54.8299C56.1263 54.8299 55.3216 53.7806 55.3216 51.8331V42.1974H50.6273V52.6078C50.6273 56.283 52.7287 58.6313 56.033 58.6313V58.6286ZM61.9331 40.033V35.9568L54.1184 37.3467V40.033H61.9331Z" fill="#FF6200"/>
<path d="M14.1822 33.1505C16.0564 33.1505 17.3643 31.877 17.3643 30.0751C17.3643 28.2735 16.0564 27 14.1822 27C12.3082 27 11 28.2735 11 30.0751C11 31.877 12.3082 33.1505 14.1822 33.1505Z" fill="white"/>
<path d="M16.8759 35.0479H11.5022V53.3987H16.8759V35.0479Z" fill="white"/>
<path d="M21.6087 39.2317V47.08C21.6087 51.5357 23.9417 53.7619 28.0798 53.7619C29.5639 53.7619 30.803 53.5858 31.4035 53.4066V49.3062C31.0135 49.4133 30.306 49.517 29.4948 49.517C27.7623 49.517 26.9855 48.668 26.9855 46.7248V39.2286H31.6519V35.0558H26.9855V29.5029L21.6118 30.4556V35.0527H18.9264V39.2253H21.6118L21.6087 39.2317Z" fill="white"/>
<path d="M41.37 34.6006C38.6845 34.6006 36.4553 35.0252 34.2982 35.8395V40.1537C36.4206 39.3392 38.54 38.8455 40.521 38.8455C42.9957 38.8455 44.376 39.9776 44.376 41.9586C43.9514 41.924 43.2439 41.8893 42.5711 41.8893C36.9143 41.8893 33.3424 44.2225 33.3424 48.219C33.3424 51.6843 35.7824 53.8758 39.6374 53.8758C41.7945 53.8758 43.351 52.9922 44.4451 51.5082L44.5144 53.4168H49.5359V42.6315C49.5359 37.3992 46.6022 34.6039 41.3669 34.6039L41.37 34.6006ZM44.4107 46.7285C44.4107 48.6751 43.1025 50.0177 41.2285 50.0177C39.5651 50.0177 38.54 49.2756 38.54 47.7915C38.54 46.0934 40.1657 45.2098 43.0648 45.2098C43.4893 45.2098 44.1622 45.2445 44.4074 45.2822V46.7318L44.4107 46.7285Z" fill="white"/>
<path d="M58.3828 53.8577C60.609 53.8577 62.131 53.0432 63.3321 51.4177L63.4012 53.3987H68.5644V35.0479H63.1907V45.8676C63.1907 48.094 62.0933 49.509 60.2914 49.509C58.4898 49.509 57.5685 48.3077 57.5685 46.0784V35.0479H52.1946V46.9651C52.1946 51.1723 54.6002 53.8608 58.3828 53.8608V53.8577Z" fill="white"/>
<path d="M65.1306 32.5778V27.9116L56.1846 29.5027V32.5778H65.1306Z" fill="white"/>
</g>
</g>
<defs>
<clipPath id="clip0_22116_4357">
<rect width="80" height="80"/>
</clipPath>
</defs>
</svg>
