<svg width="80" height="80" viewBox="0 0 80 80" fill="none" xmlns="http://www.w3.org/2000/svg">
<g clip-path="url(#clip0_22116_4355)">
<rect width="80" height="80" fill="#FFE700"/>
<path d="M39.7426 22.2622C24.874 22.2622 12.8219 29.9746 12.8219 39.4854C12.8219 48.9963 24.874 56.7087 39.7426 56.7087C54.6112 56.7087 66.6633 48.9982 66.6633 39.4854C66.6633 29.9727 54.6112 22.2622 39.7426 22.2622Z" fill="#01B1EC"/>
<path d="M39.7372 21.1816C24.2785 21.1816 11.74 29.4049 11.74 39.4945C11.74 39.7547 11.74 40.4748 11.74 40.5672C11.74 51.2695 22.6968 59.9377 39.7372 59.9377C56.8925 59.9377 67.74 51.2657 67.74 40.5691V39.5002C67.7362 29.4049 55.1996 21.1816 39.7372 21.1816ZM39.7372 56.7083C24.8686 56.7083 12.8164 48.9978 12.8164 39.4851C12.8164 29.9723 24.8686 22.2619 39.7372 22.2619C54.6058 22.2619 66.6579 29.9742 66.6579 39.4851C66.6579 48.9959 54.6114 56.7083 39.7428 56.7083H39.7372Z" fill="#292C6F"/>
<path d="M66.5802 38.1052L65.8469 38.2145L62.4743 38.0505L55.2992 38.9026L48.8254 41.2591L49.1911 31.6747L50.6182 27.6781L51.9642 27.5951L53.3103 27.2294L56.1249 26.2491L58.0421 26.0455L58.8584 25.6685L58.5323 24.2508L57.3955 23.853L57.8027 22.3807L56.7772 21.3551L54.0907 19.7056H53.3574L50.7879 21.8943L47.8111 25.4027L44.2613 32.1724L39.4861 43.0632L37.369 38.7801L31.6172 26.2585L30.8311 25.6063L26.5875 20.6482L25.0925 19.7056L24.0594 20.0053L21.258 22.1526L21.2034 23.7569L20.6378 24.0019L19.7687 25.1444L20.585 25.8777L22.868 26.2548L28.2239 27.8478L28.484 28.0023L28.9723 29.5105L30.1128 33.3771V40.85L29.1702 41.0536L27.2549 40.3184L20.4417 38.6066L17.0578 38.3201L12.7935 38.5652C12.8217 44.7449 15.9719 47.5764 15.9719 47.5764L17.3387 46.9373L23.5278 48.0157L33.1687 47.7951L38.1853 46.9487L39.4861 45.2859L40.2986 46.7658L45.2774 48.0289H52.5656L58.7095 47.2748L61.4298 46.975L63.2057 47.9327C67.0817 44.0511 66.5802 38.1052 66.5802 38.1052Z" fill="white"/>
<path d="M38.9339 45.6744C38.0309 46.994 36.6151 47.2561 35.2201 47.3447C34.5697 47.3861 33.9193 47.4352 33.267 47.4842C30.9878 47.6557 28.6294 47.8348 26.3181 47.6482L26.0976 47.6293C23.6261 47.4314 21.0697 47.2259 18.6435 46.6773C17.486 46.4153 16.8714 46.5755 16.2078 47.3126C16.1286 47.4012 15.7044 47.8499 15.6253 48.1252C15.5932 48.2364 15.7799 48.2986 15.8138 48.3306C15.9382 48.4437 16.5452 47.8424 16.6565 47.7179C17.1655 47.1524 17.5633 47.0544 18.5077 47.2693C20.9755 47.8348 23.5544 48.0347 26.0486 48.2345L26.2691 48.2533C26.9855 48.3099 27.7038 48.3344 28.4201 48.3344C30.0659 48.3344 31.7098 48.21 33.3217 48.0893C33.9702 48.0403 34.6168 47.9913 35.2653 47.9498C36.7396 47.8556 38.391 47.5539 39.4411 46.0175C39.4812 45.9512 39.4945 45.8721 39.4782 45.7963C39.4619 45.7205 39.4172 45.6538 39.3533 45.61C39.2894 45.5661 39.2112 45.5483 39.1346 45.5603C39.058 45.5723 38.9889 45.6131 38.9415 45.6744H38.9339Z" fill="#292C6F"/>
<path d="M66.7481 37.9635C66.7088 37.8933 66.6432 37.8415 66.5658 37.8196C66.4884 37.7977 66.4054 37.8074 66.3352 37.8467C65.8733 38.103 65.4265 37.973 64.9081 37.8221C64.5309 37.6899 64.1332 37.626 63.7336 37.6336C59.6578 37.8655 55.516 38.6761 51.0726 40.1089C50.5786 40.2673 50.0866 40.4482 49.6097 40.6236L49.1874 40.7763C49.1987 40.4275 49.2119 40.0768 49.2251 39.7281C49.2929 37.8561 49.3646 35.9219 49.3193 34.0178C49.2741 32.0195 49.8755 30.2059 50.5485 28.3622C50.7012 27.9474 50.7936 27.7683 51.4308 27.8739C52.3394 28.0247 53.365 27.6402 54.1568 27.2895C55.2577 26.8012 56.2569 26.4016 57.3729 26.4355C58.2929 26.4713 58.8811 26 59.0451 25.1159C59.2506 23.9942 58.3608 23.7321 57.7726 23.5587C57.76 23.5578 57.7474 23.5578 57.7349 23.5587C57.9079 23.2127 58.0492 22.8518 58.1572 22.4804C58.171 22.4332 58.1733 22.3833 58.1638 22.3351C58.1543 22.2868 58.1333 22.2416 58.1025 22.2032C57.4559 21.402 56.5943 20.8459 55.7535 20.318C55.4406 20.1182 55.1182 19.9089 54.8109 19.694C54.1323 19.2095 53.3028 19.317 52.4865 19.9881C48.8876 22.946 46.0768 26.903 43.9126 32.0892C43.528 33.0092 43.1509 33.9317 42.7814 34.8567C41.7352 37.4149 40.6512 40.0523 39.4145 42.5861L38.5774 40.6858C37.9164 39.1851 37.2521 37.6845 36.5848 36.1839C36.2429 35.4198 35.9042 34.6556 35.5686 33.8915C34.626 31.7518 33.642 29.5404 32.6277 27.3857C31.5155 25.0273 29.6736 23.2872 27.8921 21.6169C27.2813 21.0514 26.6516 20.45 26.0634 19.8429C25.4753 19.2359 24.5553 19.2774 24.1782 19.5639C23.8672 19.8034 23.5222 20.022 23.1885 20.2313C22.4816 20.6781 21.752 21.1419 21.2072 21.8526C20.7566 22.4389 20.6737 23.0742 20.93 23.6115C20.3475 23.7679 19.765 24.0715 19.552 25.0631C19.5383 25.1159 19.5391 25.1715 19.5544 25.2239C19.5696 25.2763 19.5988 25.3237 19.6387 25.3609C19.7236 25.4401 19.8042 25.5238 19.88 25.6117C20.1383 25.9001 20.4323 26.2281 20.8226 26.2451C21.8877 26.2903 22.8661 26.6335 23.903 26.9992C24.9399 27.3649 26.0314 27.7533 27.1946 27.7815C27.8431 27.8004 28.1259 27.9531 28.2729 28.366C28.3445 28.5677 28.4181 28.7694 28.4897 28.9692C28.8358 29.8415 29.1101 30.7406 29.3098 31.6575C29.5794 33.094 29.536 34.5834 29.4983 36.0237C29.453 37.5733 29.4078 39.1738 29.7453 40.7367C29.3041 40.8592 28.9723 40.6839 28.5953 40.4859C28.4265 40.3913 28.2507 40.31 28.0693 40.2427C24.7212 39.0909 21.1318 37.9673 17.2991 37.9673H17.1879C16.1831 37.9673 15.1783 37.9673 14.1716 37.9673H12.7897C12.7092 37.9673 12.632 37.9993 12.5751 38.0562C12.5182 38.1131 12.4862 38.1903 12.4862 38.2708C12.4862 38.3513 12.5182 38.4285 12.5751 38.4854C12.632 38.5424 12.7092 38.5743 12.7897 38.5743H14.1716C15.1783 38.5743 16.1831 38.5743 17.1879 38.5743H17.2878C21.0262 38.5743 24.5609 39.681 27.8619 40.8177C28.0161 40.8698 28.1661 40.9334 28.3106 41.0081C28.6502 41.2264 29.0391 41.356 29.4417 41.3852C29.711 41.3821 29.976 41.3176 30.2166 41.1967C30.28 41.1669 30.3312 41.1161 30.3614 41.0528C30.3917 40.9896 30.3991 40.9179 30.3825 40.8498C30.0054 39.2869 30.0431 37.7109 30.0902 36.0406C30.1336 34.5683 30.177 33.0469 29.9017 31.5463C29.6996 30.5943 29.4196 29.6605 29.0647 28.7543C28.9912 28.5545 28.9195 28.3546 28.8479 28.1548C28.5481 27.314 27.8186 27.1839 27.2172 27.167C26.1483 27.1349 25.1567 26.7899 24.1066 26.4129C23.0565 26.0358 22.0065 25.6758 20.8527 25.6268C20.7227 25.6268 20.4927 25.3647 20.3419 25.195L20.1835 25.0235C20.372 24.3901 20.7604 24.2562 21.2807 24.1431C21.295 24.138 21.3089 24.1317 21.3222 24.1242C21.3561 24.1563 21.3844 24.1883 21.4221 24.2185C22.0894 24.7464 23.4638 25.8285 25.019 24.7596C25.5035 25.3858 26.0837 25.9317 26.7384 26.3771C26.7881 26.4084 26.8455 26.4254 26.9042 26.4261C26.9719 26.4286 27.0384 26.4084 27.0932 26.3688C27.1481 26.3291 27.1881 26.2723 27.207 26.2073C27.2258 26.1423 27.2224 26.0729 27.1973 26.0101C27.1721 25.9472 27.1267 25.8946 27.0683 25.8605C26.1407 25.2591 25.4979 24.407 24.8192 23.5059C24.5892 23.2005 24.3517 22.8857 24.1047 22.5859C24.0822 22.5491 24.0521 22.5176 24.0165 22.4933C23.9808 22.4691 23.9404 22.4527 23.8979 22.4453C23.8554 22.4379 23.8119 22.4396 23.7701 22.4504C23.7283 22.4611 23.6894 22.4807 23.6557 22.5077C23.6221 22.5347 23.5946 22.5685 23.5751 22.607C23.5556 22.6454 23.5445 22.6876 23.5426 22.7307C23.5407 22.7738 23.5479 22.8168 23.5639 22.8568C23.5799 22.8969 23.6042 22.9331 23.6353 22.963C23.8747 23.2533 24.1085 23.5643 24.3347 23.8622L24.642 24.2694C23.673 24.916 22.8284 24.5428 21.7972 23.7284C21.1035 23.1779 21.4296 22.5331 21.6879 22.1976C22.1667 21.5736 22.819 21.1607 23.5109 20.7215C23.8559 20.5047 24.2122 20.2784 24.544 20.0239C24.691 19.9127 25.2528 19.8505 25.6336 20.2426C26.2312 20.8591 26.8665 21.4567 27.4811 22.0354C29.2231 23.6737 31.0234 25.3685 32.0773 27.6062C33.0896 29.7535 34.0661 31.9629 35.0106 34.0989C35.35 34.8643 35.6874 35.6297 36.0286 36.3932C36.696 37.8925 37.3596 39.3925 38.0194 40.8931L38.9111 42.9122C38.9332 42.9615 38.9681 43.0039 39.0122 43.0351C39.0564 43.0663 39.108 43.085 39.1618 43.0894C38.9356 43.7101 38.941 44.3915 39.1769 45.0085C39.5168 46.0111 40.2297 46.8442 41.1677 47.3349C41.8746 47.6629 42.6369 47.8547 43.4149 47.9004L43.8485 47.9344C46.1446 48.1229 48.4974 48.3001 50.8501 48.3001C51.723 48.3001 52.5958 48.2737 53.4649 48.2134C55.6385 48.0626 57.9573 47.8364 60.1781 47.2482C61.3903 46.9258 61.9728 47.2595 62.6289 47.9891C62.742 48.1135 63.1944 48.6112 63.3113 48.3001C63.4998 47.8137 63.1944 47.71 63.0832 47.5856C62.3291 46.7429 61.5241 46.266 60.0292 46.6638C57.8574 47.2406 55.5744 47.4593 53.431 47.6064C50.2619 47.8288 47.0213 47.5743 43.905 47.3273L43.4695 47.2934C42.7674 47.2499 42.0795 47.076 41.4411 46.7806C40.6473 46.3614 40.0448 45.6535 39.7576 44.8031C39.554 44.2036 39.5577 43.6399 39.7689 43.2176C41.0885 40.55 42.2423 37.7505 43.3508 35.0471C43.7278 34.1253 44.1049 33.2034 44.4819 32.2834C46.6122 27.1934 49.3608 23.3098 52.8805 20.4161C53.2971 20.0748 53.9098 19.7487 54.4697 20.1484C54.7845 20.3727 55.1144 20.5838 55.433 20.7893C56.2192 21.2946 56.9638 21.7715 57.535 22.4313C57.2221 23.4192 56.8036 24.03 56.2607 24.2977C55.7611 24.5428 55.1012 24.5201 54.2529 24.2317C54.6639 23.6982 55.0277 23.1477 55.369 22.6236C55.3935 22.5904 55.4111 22.5525 55.4205 22.5123C55.43 22.472 55.4311 22.4303 55.4238 22.3896C55.4165 22.3489 55.401 22.3101 55.3782 22.2756C55.3554 22.2411 55.3258 22.2117 55.2912 22.189C55.2566 22.1664 55.2177 22.1511 55.177 22.144C55.1363 22.1369 55.0945 22.1382 55.0543 22.1479C55.0141 22.1575 54.9763 22.1752 54.9432 22.2C54.9101 22.2247 54.8824 22.256 54.8618 22.2918C54.0399 23.5511 53.1067 24.9782 51.6268 25.836C51.5693 25.8696 51.5244 25.9213 51.4991 25.9829C51.4739 26.0446 51.4696 26.1128 51.4869 26.1772C51.5043 26.2415 51.5424 26.2983 51.5953 26.3389C51.6481 26.3794 51.7129 26.4015 51.7795 26.4016C51.8326 26.4016 51.8847 26.3873 51.9303 26.3601C52.6558 25.9287 53.3033 25.378 53.8457 24.7313C54.9542 25.1479 55.8346 25.1837 56.5302 24.8406C56.9059 24.6466 57.2259 24.3597 57.4596 24.0074C57.4968 24.0575 57.549 24.0944 57.6086 24.1129C58.3004 24.3184 58.5512 24.4466 58.455 24.982C58.3495 25.5645 58.0233 25.8115 57.4012 25.7945C56.1645 25.7474 55.0899 26.181 53.9173 26.7013C53.2594 26.9935 52.2961 27.3687 51.5382 27.2405C50.5749 27.0821 50.2186 27.4761 49.9867 28.119C49.2929 30.0042 48.667 31.8894 48.7217 33.9914C48.7651 35.8766 48.6934 37.8033 48.6256 39.6659C48.608 40.1296 48.5916 40.5934 48.5766 41.0572C48.5287 41.1026 48.4784 41.1454 48.4257 41.1853C48.3562 41.2369 48.2901 41.293 48.2278 41.3531C48.1978 41.3809 48.1737 41.4145 48.157 41.4518C48.1403 41.4891 48.1313 41.5295 48.1305 41.5703C48.1298 41.6112 48.1373 41.6518 48.1527 41.6898C48.168 41.7277 48.1909 41.7621 48.2199 41.7909C48.2489 41.8198 48.2834 41.8425 48.3213 41.8577C48.3593 41.8728 48.4 41.8802 48.4408 41.8793C48.4817 41.8784 48.522 41.8692 48.5593 41.8523C48.5965 41.8354 48.63 41.8112 48.6576 41.7811C48.7024 41.7387 48.7496 41.6991 48.799 41.6623C48.8984 41.591 48.9884 41.5074 49.0667 41.4135C49.0955 41.4121 49.124 41.407 49.1515 41.3984L49.8265 41.1533C50.2978 40.9799 50.7841 40.8027 51.2667 40.6462C55.6593 39.2285 59.7502 38.4292 63.777 38.1954C64.1073 38.1992 64.4348 38.2578 64.746 38.3689C65.3115 38.5329 65.9525 38.7195 66.6312 38.3406C66.6924 38.302 66.7378 38.2428 66.7593 38.1737C66.7807 38.1045 66.7767 38.03 66.7481 37.9635Z" fill="#292C6F"/>
</g>
<defs>
<clipPath id="clip0_22116_4355">
<rect width="80" height="80"/>
</clipPath>
</defs>
</svg>
