<svg width="80" height="80" viewBox="0 0 80 80" fill="none" xmlns="http://www.w3.org/2000/svg">
<g clip-path="url(#clip0_22116_4347)">
<rect width="80" height="80" fill="#820AD1"/>
<path d="M24.6643 29.5261C25.4184 28.7191 26.3321 28.0778 27.3475 27.643C28.3628 27.2082 29.4575 26.9893 30.5619 27.0004C35.1703 27.0004 38.2243 30.3723 38.8087 35.4045C38.9998 37.0407 38.9966 39.3481 38.995 42.0216V52.868H32.6574V45.4625C32.6574 45.4625 32.6445 39.1233 32.606 37.9399C32.4358 32.7793 29.3818 29.5374 24.6643 29.5342C23.2416 31.0387 22.4789 32.8772 22.3665 35.6888C22.3505 36.0805 22.3537 37.4695 22.3665 39.3015C22.3665 40.2505 22.3665 41.3183 22.3665 42.4278C22.3665 47.2545 22.3665 52.8647 22.3665 52.8647H16.0289V41.4644C16.0289 41.0742 16.0289 40.6808 16.0145 40.2858C16 39.483 15.9855 38.6882 16.0289 37.895C16.1012 36.5719 16.3292 35.2713 16.9474 34.0622C17.6468 32.7006 18.706 31.5567 20.0099 30.7547C21.3137 29.9528 22.8124 29.5234 24.3431 29.5133C24.4507 29.5133 24.5583 29.5133 24.6643 29.5133V29.5261Z" fill="#FAFAFA"/>
<path d="M63.9712 42.5809C64.0146 41.7877 64.0001 40.9865 63.9857 40.19C63.9776 39.795 63.9712 39.4017 63.9712 39.0115V27.6111H57.6336C57.6336 27.6111 57.6336 33.231 57.6336 38.0481C57.6336 39.1576 57.6336 40.2254 57.6336 41.1743C57.6336 43.0064 57.6432 44.3953 57.6336 44.7871C57.5212 47.5987 56.7585 49.4436 55.3358 50.9417C50.6183 50.9417 47.5643 47.6966 47.3941 42.5376C47.3556 41.3526 47.3395 38.4126 47.3395 35.0085V27.6079H41.0067V38.4543C41.0067 41.1278 41.0067 43.4319 41.1914 45.0713C41.7758 50.1116 44.8298 53.4755 49.4382 53.4755C50.5426 53.4865 51.6373 53.2677 52.6526 52.8329C53.668 52.3981 54.5817 51.7568 55.3358 50.9497C55.4418 50.9497 55.5494 50.9497 55.657 50.9497C57.1877 50.9396 58.6864 50.5103 59.9902 49.7083C61.2941 48.9063 62.3533 47.7624 63.0527 46.4008C63.6709 45.1917 63.8989 43.8911 63.9712 42.5681V42.5809Z" fill="#FAFAFA"/>
</g>
<defs>
<clipPath id="clip0_22116_4347">
<rect width="80" height="80"/>
</clipPath>
</defs>
</svg>
