<svg width="80" height="80" viewBox="0 0 80 80" fill="none" xmlns="http://www.w3.org/2000/svg">
<g clip-path="url(#clip0_22116_4337)">
<rect width="80" height="80" fill="#FAFAFA"/>
<mask id="mask0_22116_4337" style="mask-type:luminance" maskUnits="userSpaceOnUse" x="0" y="0" width="80" height="80">
<path d="M80 0H0V80H80V0Z" fill="white"/>
</mask>
<g mask="url(#mask0_22116_4337)">
<path d="M80 0H0V80H80V0Z" fill="white"/>
<path d="M28.3745 33.2709C27.0064 33.2739 25.6677 33.3787 24.3317 33.442C22.7175 33.5184 21.1002 33.6244 19.4881 33.8042C18.3389 33.9325 17.1861 34.064 16.03 34.1448C15.4032 34.1887 14.7796 34.2783 14.1085 34.3472C14.0625 34.0676 14.0625 33.7881 14.0625 33.462C14.2491 33.4923 14.241 33.3523 14.2693 33.2376C14.7605 31.2414 15.5038 29.3369 16.4514 27.5186C17.2973 25.8953 18.2989 24.3681 19.4836 22.9637C19.8741 22.5008 20.2769 22.0528 20.7389 21.6284C21.0211 21.7872 21.1944 21.9906 21.3197 22.2634C22.8664 25.6311 24.92 28.6742 27.273 31.5247C27.6123 31.9358 27.9561 32.3429 28.2939 32.7551C28.4094 32.8961 28.5803 33.0345 28.3745 33.2709Z" fill="#64C832"/>
<path d="M42.998 13.4375C42.9817 13.6786 43.1902 13.6208 43.3246 13.6997C43.4049 14.0528 43.2672 14.3264 43.1185 14.5938C41.5494 17.4159 40.5957 20.4586 39.8942 23.5914C39.8191 23.9272 39.7428 24.2622 39.6305 24.5877C39.5932 24.6958 39.511 24.7506 39.3553 24.7431C38.6702 23.9916 38.0233 23.2508 37.3802 22.5067C36.7797 21.8119 36.2003 21.0981 35.5819 20.4198C33.9836 18.667 32.2824 17.0137 30.608 15.3347C30.5483 15.2747 30.4967 15.2066 30.4207 15.1182C30.9438 14.7837 31.528 14.6541 32.0861 14.4934C33.4657 14.0961 34.8638 13.7685 36.2991 13.6324C36.3549 13.6271 36.4046 13.5589 36.4394 13.4788C38.5975 13.4375 40.7735 13.4375 42.998 13.4375Z" fill="#64C832"/>
<path d="M40.4258 55.3236C40.9162 56.7439 41.3495 58.1577 41.8337 59.5539C42.5248 61.5471 43.2986 63.5099 44.1039 65.4597C44.3759 66.1183 44.3294 66.1436 43.6166 66.2464C43.1753 66.31 42.7033 66.2175 42.3058 66.4978C40.8706 66.5402 39.4194 66.5402 37.9194 66.5402C37.9375 66.2961 37.745 66.3446 37.6267 66.3366C35.557 66.1969 33.5498 65.7402 31.5412 65.1174C31.3761 64.6917 31.7052 64.53 31.9208 64.3469C32.7881 63.6105 33.61 62.828 34.4202 62.0294C36.4137 60.0644 38.1322 57.8683 39.8367 55.6588C39.9736 55.4811 40.0673 55.2036 40.4258 55.3236Z" fill="#64C832"/>
<path d="M14.3088 46.7797C14.843 46.0459 15.5946 45.5587 16.3019 45.0376C18.6675 43.2947 21.1645 41.758 23.8209 40.4923C26.6659 39.1369 29.6209 38.1017 32.7364 37.5875C33.4045 37.4773 34.1081 37.495 34.7928 37.6211C36.3162 37.9017 36.3029 39.0903 35.5612 39.9939C34.6256 41.1337 33.5717 42.1758 32.6089 43.2945C31.5476 44.5278 30.5309 45.7995 29.4972 47.0564C29.3344 47.2545 29.184 47.4626 29 47.6872C28.3584 48.0944 27.6509 48.0278 26.9879 48.044C23.6456 48.1264 20.3069 48.0581 16.995 47.5265C16.2978 47.4147 15.6106 47.248 14.9172 47.1151C14.6963 47.0728 14.514 46.9519 14.3088 46.7797Z" fill="#146E37"/>
<path d="M28.3954 33.3029C27.8129 32.4716 27.1108 31.7805 26.5047 31.0116C24.235 28.1324 22.2246 25.0971 20.7833 21.6694C22.3144 21.896 23.799 22.3615 25.276 22.8538C28.956 24.0805 32.4341 25.723 35.6464 27.9083C36.8961 28.7587 38.0932 29.6755 39.1255 30.7893C39.5372 31.2335 39.8846 31.7154 40.0629 32.3069C40.3043 33.108 39.8635 33.7841 39.0296 33.8229C38.0511 33.8682 37.0772 33.8027 36.1071 33.6479C35.6349 33.5726 35.1477 33.5591 34.6732 33.5416C33.5405 33.4997 32.4118 33.3694 31.2741 33.4082C30.3305 33.4402 29.3907 33.2474 28.3954 33.3029Z" fill="#146E37"/>
<path d="M40.4602 55.297C39.6683 56.3304 38.88 57.3257 38.0839 58.3148C36.1717 60.691 34.0917 62.9043 31.728 64.8413C31.662 64.8954 31.6058 64.9615 31.5291 65.0541C31.2536 64.9926 31.3517 64.7652 31.3559 64.5988C31.3794 63.6934 31.3202 62.7898 31.332 61.8831C31.3756 58.5863 31.9031 55.3731 32.8203 52.2151C33.338 50.4323 33.9981 48.704 34.8813 47.0706C35.2877 46.319 35.7369 45.5804 36.4895 45.099C37.3842 44.5267 38.2008 44.7882 38.4834 45.8201C38.7175 46.6743 38.8547 47.5579 38.9916 48.4351C39.338 50.6534 39.8658 52.8306 40.4277 55.0009C40.4491 55.0832 40.4499 55.171 40.4602 55.297Z" fill="#146E37"/>
<path d="M39.3319 24.7648C39.6613 23.3894 39.9805 22.0372 40.3585 20.7016C41.0457 18.2722 41.9725 15.9397 43.3207 13.7529C44.1196 14.9926 44.6821 16.355 45.215 17.7273C45.9908 19.7251 46.5844 21.7786 47.0261 23.8775C47.5274 26.2589 47.6982 28.6656 47.5839 31.0901C47.5569 31.663 47.4127 32.2384 47.0997 32.7528C46.6989 33.4117 45.9593 33.5398 45.3974 33.0197C45.0314 32.6809 44.7118 32.3072 44.4394 31.8816C42.9436 29.5434 41.3044 27.3076 39.58 25.1334C39.4953 25.0266 39.4252 24.9084 39.3319 24.7648Z" fill="#146E37"/>
<path d="M14.2754 46.7866C15.1192 46.9001 15.9582 47.076 16.8038 47.2091C18.1396 47.4196 19.4794 47.6093 20.8305 47.6929C22.4966 47.7958 24.1647 47.8379 25.8338 47.8019C26.848 47.7802 27.8616 47.7336 28.9238 47.7033C28.1511 48.8872 27.346 50.0774 26.5053 51.2419C25.4741 52.6705 24.5685 54.179 23.6407 55.6732C22.9897 56.7213 22.3557 57.7805 21.7389 58.8491C21.586 59.1144 21.4941 59.1166 21.2911 58.9197C19.6063 57.286 18.2003 55.4377 17.0232 53.411C15.9305 51.5297 15.0557 49.5557 14.4653 47.4588C14.4058 47.2479 14.3376 47.0394 14.2754 46.7866Z" fill="#64C832"/>
<path d="M53.9448 62.3446C52.9823 61.9091 52.1685 61.2484 51.3567 60.5985C50.3795 59.816 49.4498 58.9726 48.5898 58.0577C46.486 55.8196 44.6992 53.3621 43.4473 50.5441C43.1065 49.7771 42.9101 48.9698 43.042 48.1087C43.1532 47.3832 43.7726 46.9523 44.4973 47.1265C45.3821 47.3393 46.1135 47.8732 46.8928 48.2959C48.7492 49.3026 50.6568 50.1941 52.6432 51.0116C52.9363 51.2576 53.0639 51.5565 53.1384 51.8854C53.5829 53.849 53.9057 55.8298 54.0831 57.8379C54.1879 59.024 54.1553 60.2076 54.1732 61.3927C54.1781 61.7137 54.1449 62.0246 53.9448 62.3446Z" fill="#146E37"/>
<path d="M61.5407 25.1963C61.0968 26.7327 60.3836 28.1232 59.635 29.491C58.7948 31.026 57.8284 32.4849 56.7065 33.8319C55.3106 35.508 53.8836 37.153 51.9087 38.198C51.6595 38.3299 51.3968 38.4028 51.1331 38.4611C50.3225 38.6397 49.7942 38.2047 49.7764 37.365C49.7562 36.4168 50.1589 35.5616 50.3886 34.6697C50.9393 32.5308 51.4679 30.3875 51.8582 28.1675C52.1162 27.8432 52.4198 27.6385 52.7662 27.4903C55.2443 26.431 57.7529 25.4677 60.4329 25.0414C60.805 24.9824 61.1835 24.8875 61.5407 25.1963Z" fill="#146E37"/>
<path d="M65.5275 45.077C64.1197 45.7417 62.6353 46.0715 61.1391 46.3467C59.2264 46.6984 57.2934 46.8393 55.3506 46.7634C53.8259 46.7037 52.3131 46.5163 50.8398 46.1017C50.2577 45.9377 49.7288 45.649 49.2984 45.206C48.7539 44.6454 48.8405 43.7895 49.4891 43.3417C50.2589 42.8101 51.1461 42.5209 51.9895 42.1434C53.793 41.3365 55.5389 40.4193 57.2889 39.4307C57.6331 39.4049 57.9213 39.472 58.2073 39.6127C60.6952 40.8368 62.9578 42.391 65.0294 44.2293C65.2792 44.451 65.4617 44.7109 65.5275 45.077Z" fill="#146E37"/>
<path d="M61.5653 25.1961C60.1537 25.2386 58.815 25.6141 57.4834 26.0055C55.7961 26.5014 54.1712 27.1687 52.5617 27.8733C52.3573 27.9627 52.1462 28.0364 51.9014 28.1211C51.9961 27.3414 52.1487 26.5611 52.2542 25.7744C52.4414 24.3791 52.637 22.9831 52.7571 21.5814C52.8357 20.6644 52.9014 19.7455 52.9764 18.8275C53.0221 18.2677 52.9331 17.6973 53.1521 17.1094C53.8867 17.4352 54.5362 17.9456 55.204 18.4136C56.6634 19.4361 57.9717 20.6428 59.1589 21.9644C60.0498 22.9561 60.9481 23.9573 61.5653 25.1961Z" fill="#64C832"/>
<path d="M53.9545 62.3778C53.9217 61.7996 53.9211 61.2143 53.9255 60.6292C53.9494 57.3982 53.4386 54.2374 52.6791 51.0688C53.895 51.4713 55.1039 51.9395 56.3317 52.3507C58.2166 52.982 60.1389 53.4871 62.1108 53.967C61.7422 54.6995 61.2524 55.3262 60.797 55.9707C60.038 57.0448 59.1613 58.0318 58.2302 58.951C56.9358 60.2287 55.5181 61.3738 53.9545 62.3778Z" fill="#64C832"/>
<path d="M65.5526 45.0902C63.6822 43.2168 61.5329 41.7404 59.2422 40.4562C58.6274 40.1113 57.9982 39.7924 57.348 39.4382C59.8326 37.8502 62.2972 36.2171 64.6516 34.4209C65.3458 33.8912 65.3436 33.9048 65.5191 34.7532C66.0341 37.2435 65.9449 39.7669 65.9065 42.283C65.8922 43.2123 65.6985 44.1387 65.5526 45.0902Z" fill="#64C832"/>
</g>
</g>
<defs>
<clipPath id="clip0_22116_4337">
<rect width="80" height="80"/>
</clipPath>
</defs>
</svg>
